<?xml version="1.0" encoding="UTF-8"?>
<!DOCTYPE svg PUBLIC "-//W3C//DTD SVG 1.1//EN" "http://www.w3.org/Graphics/SVG/1.1/DTD/svg11.dtd">
<svg version="1.1" xmlns="http://www.w3.org/2000/svg" xmlns:xlink="http://www.w3.org/1999/xlink" width="24" height="24"  xml:space="preserve" id="rounding">
    <!-- Generated by PaintCode - http://www.paintcodeapp.com -->
    <g id="rounding-group65">
        <path id="rounding-bezier35" stroke="none" fill="rgb(248, 247, 245)" d="M 3.17,4.75 C 3.17,4.75 1.3,4.75 1.3,6.75 L 1.3,17.16 C 1.3,17.16 1.3,19.16 3.17,19.16 L 20.74,19.16 C 20.74,19.16 22.61,19.16 22.61,17.16 L 22.61,6.75 C 22.61,6.75 22.61,4.75 20.74,4.75 L 3.17,4.75 Z M 3.17,4.75" />
        <path id="rounding-bezier36" stroke="rgb(193, 193, 188)" stroke-width="0.5" stroke-miterlimit="4" fill="none" d="M 3.17,4.75 C 3.17,4.75 1.3,4.75 1.3,6.75 L 1.3,17.16 C 1.3,17.16 1.3,19.16 3.17,19.16 L 20.74,19.16 C 20.74,19.16 22.61,19.16 22.61,17.16 L 22.61,6.75 C 22.61,6.75 22.61,4.75 20.74,4.75 L 3.17,4.75 Z M 3.17,4.75" />
    </g>
    <g id="rounding-group" transform="translate(5, 7)" >
        <path id="rounding-bezier3" stroke="none" fill="rgb(90, 70, 128)" d="M 7.44,0.5 C 7.82,0.5 8.15,0.84 8.15,1.25 8.15,1.66 7.82,2 7.4,2 5.56,2 4.05,3.46 3.99,5.29 4.62,5.24 5.11,5.2 5.11,5.2 L 3.54,8.57 1.4,5.52 C 1.4,5.52 1.88,5.48 2.49,5.43 2.49,3.82 3.25,2.4 4.43,1.5 5.26,0.87 6.29,0.5 7.4,0.5 L 7.44,0.5 Z M 7.44,0.5" />
        <path id="rounding-bezier" stroke="none" fill="rgb(90, 70, 128)" d="M 10.76,1.75 C 10.76,1.75 12.9,4.8 12.9,4.8 12.9,4.8 12.39,4.85 11.75,4.9 11.52,7.41 9.42,9.37 6.85,9.37 6.44,9.37 6.1,9.04 6.1,8.62 6.1,8.21 6.44,7.87 6.85,7.87 8.54,7.87 9.94,6.65 10.22,5.03 9.63,5.09 9.19,5.13 9.19,5.13 L 10.76,1.75 10.76,1.75 Z M 10.76,1.75" />
    </g>
</svg>
